<?xml version="1.0" encoding="utf-8"?>
<!-- Generator: Adobe Illustrator 24.1.2, SVG Export Plug-In . SVG Version: 6.00 Build 0)  -->
<svg version="1.1" id="Layer_1" xmlns="http://www.w3.org/2000/svg" xmlns:xlink="http://www.w3.org/1999/xlink" x="0px" y="0px"
	 viewBox="0 0 1654 2218" style="enable-background:new 0 0 1654 2218;" xml:space="preserve">
<style type="text/css">
	.st0{fill:#3FAE49;}
</style>
<g>
	<path class="st0" d="M15.449951,249.97139L825.462585,0v0.000002l828.462585,255.66507
		c-113.487183,336.610687-535.677856,551.524536-857.38385,375.914703
		C550.583984,513.382629,378.119202,261.383148,15.449938,249.971344L15.449951,249.97139z"/>
	<path class="st0" d="M1653.925171,439.951813v1068.312622h-0.000122c0,132.371948-299.783813,371.366577-554.507202,541.901855
		l-0.000244-0.000244c-368.152161-115.042847-560.45636-542.814697-396.162659-883.348022
		c112.448181-233.07251,323.631287-335.662903,462.049011-374.600037
		C1322.210327,748.079834,1494.116943,700.079956,1653.925171,439.951813z"/>
	<path class="st0" d="M0,1508.264404V351.714508c405.388916,30.547607,649.744568,333.713165,579.820312,689.379395
		c-78.757629,400.596802-103.187134,867.642578,422.305054,1072.608032l-0.115356-0.182861
		c-69.553101,43.890625-131.31134,79.894775-176.547424,103.581055C606.67688,2102.123535,0,1696.915161,0,1508.264404z"/>
</g>
</svg>
